<?xml version="1.0" encoding="UTF-8"?><svg id="Layer_1" xmlns="http://www.w3.org/2000/svg" viewBox="0 0 124.92 202.39"><defs><style>.cls-1{fill:#3cb54a;stroke-width:0px;}</style></defs><path class="cls-1" d="M60.62,129.59c0,5.12,4.41,9.28,9.91,9.43h23.45c2.77,0,5.02,2.25,5.02,5.02v28.33c0,2.77-2.25,5.02-5.02,5.02h-28.35c-2.77,0-5.02-2.25-5.02-5.02v-25.08c-.45-4.72-4.65-8.43-9.84-8.59h-23.67c-2.77,0-5.02-2.25-5.02-5.02v-28.33c0-2.77,2.25-5.02,5.02-5.02h25.25c4.59-.45,7.95-4.19,8.17-9.24v-19.82h0c0-4.92-4.08-8.96-9.29-9.39h-22,0s0-.01,0-.01h-2.01c-2.83,0-5.12-2.29-5.12-5.12v-28.39c0-2.83,2.29-5.12,5.12-5.12h28.21c2.83,0,5.12,2.29,5.12,5.12v25.31c.51,4.78,4.87,8.51,10.18,8.51h0s23.18,0,23.18,0c2.77,0,5.02,2.25,5.02,5.02v28.33c0,2.77-2.25,5.02-5.02,5.02h-24.7c-4.64.38-8.35,4.4-8.71,9.43l.15,19.62Z"/></svg>